<svg width="94" height="52" viewBox="0 0 94 52" fill="none" xmlns="http://www.w3.org/2000/svg">
<path d="M1.904 28.5V8.9H6.16L12.404 21.332L18.564 8.9H22.82V28.5H19.236V14.976L13.776 25.7H10.948L5.488 14.976V28.5H1.904ZM28.2748 34.66L31.4948 27.576H30.6548L25.2508 14.612H29.1428L33.0348 24.384L37.0948 14.612H40.9028L32.0828 34.66H28.2748ZM43.3298 28.5V8.9H46.9138L56.1258 22.704V8.9H59.7098V28.5H56.1258L46.9138 14.724V28.5H43.3298ZM63.5095 28.5V8.9H76.1655V11.784H67.0935V17.272H74.4295V20.1H67.0935V28.5H63.5095ZM83.4953 28.5V11.784H77.7833V8.9H92.8193V11.784H87.0793V28.5H83.4953Z" fill="#27262E"/>
<path d="M0.68 48.5V41.5H1.96L5.25 46.43V41.5H6.53V48.5H5.25L1.96 43.58V48.5H0.68ZM7.88703 48.5V41.5H12.407V42.53H9.16703V44.49H11.787V45.5H9.16703V48.5H7.88703ZM15.0248 48.5V42.53H12.9848V41.5H18.3548V42.53H16.3048V48.5H15.0248ZM21.6859 48.5V41.5H23.2059L25.4359 45.94L27.6359 41.5H29.1559V48.5H27.8759V43.67L25.9259 47.5H24.9159L22.9659 43.67V48.5H21.6859ZM32.194 48.62C31.7673 48.62 31.4173 48.5533 31.144 48.42C30.8707 48.28 30.6673 48.0967 30.534 47.87C30.4007 47.6433 30.334 47.3933 30.334 47.12C30.334 46.66 30.514 46.2867 30.874 46C31.234 45.7133 31.774 45.57 32.494 45.57H33.754V45.45C33.754 45.11 33.6573 44.86 33.464 44.7C33.2707 44.54 33.0307 44.46 32.744 44.46C32.484 44.46 32.2573 44.5233 32.064 44.65C31.8707 44.77 31.7507 44.95 31.704 45.19H30.454C30.4873 44.83 30.6073 44.5167 30.814 44.25C31.0273 43.9833 31.3007 43.78 31.634 43.64C31.9673 43.4933 32.3407 43.42 32.754 43.42C33.4607 43.42 34.0173 43.5967 34.424 43.95C34.8307 44.3033 35.034 44.8033 35.034 45.45V48.5H33.944L33.824 47.7C33.6773 47.9667 33.4707 48.1867 33.204 48.36C32.944 48.5333 32.6073 48.62 32.194 48.62ZM32.484 47.62C32.8507 47.62 33.134 47.5 33.334 47.26C33.5407 47.02 33.6707 46.7233 33.724 46.37H32.634C32.294 46.37 32.0507 46.4333 31.904 46.56C31.7573 46.68 31.684 46.83 31.684 47.01C31.684 47.2033 31.7573 47.3533 31.904 47.46C32.0507 47.5667 32.244 47.62 32.484 47.62ZM36.2555 48.5V43.54H37.3955L37.5155 44.47C37.6955 44.15 37.9388 43.8967 38.2455 43.71C38.5588 43.5167 38.9255 43.42 39.3455 43.42V44.77H38.9855C38.7055 44.77 38.4555 44.8133 38.2355 44.9C38.0155 44.9867 37.8421 45.1367 37.7155 45.35C37.5955 45.5633 37.5355 45.86 37.5355 46.24V48.5H36.2555ZM40.2203 48.5V41.3H41.5003V45.55L43.2603 43.54H44.7803L42.7503 45.8L45.1103 48.5H43.5103L41.5003 46.01V48.5H40.2203ZM47.9038 48.62C47.4038 48.62 46.9604 48.5133 46.5738 48.3C46.1871 48.0867 45.8838 47.7867 45.6638 47.4C45.4438 47.0133 45.3338 46.5667 45.3338 46.06C45.3338 45.5467 45.4404 45.09 45.6538 44.69C45.8738 44.29 46.1738 43.98 46.5538 43.76C46.9404 43.5333 47.3938 43.42 47.9138 43.42C48.4004 43.42 48.8304 43.5267 49.2038 43.74C49.5771 43.9533 49.8671 44.2467 50.0738 44.62C50.2871 44.9867 50.3938 45.3967 50.3938 45.85C50.3938 45.9233 50.3904 46 50.3838 46.08C50.3838 46.16 50.3804 46.2433 50.3738 46.33H46.6038C46.6304 46.7167 46.7638 47.02 47.0038 47.24C47.2504 47.46 47.5471 47.57 47.8938 47.57C48.1538 47.57 48.3704 47.5133 48.5438 47.4C48.7238 47.28 48.8571 47.1267 48.9438 46.94H50.2438C50.1504 47.2533 49.9938 47.54 49.7738 47.8C49.5604 48.0533 49.2938 48.2533 48.9738 48.4C48.6604 48.5467 48.3038 48.62 47.9038 48.62ZM47.9138 44.46C47.6004 44.46 47.3238 44.55 47.0838 44.73C46.8438 44.9033 46.6904 45.17 46.6238 45.53H49.0938C49.0738 45.2033 48.9538 44.9433 48.7338 44.75C48.5138 44.5567 48.2404 44.46 47.9138 44.46ZM53.5924 48.5C53.0724 48.5 52.6558 48.3733 52.3424 48.12C52.0291 47.8667 51.8724 47.4167 51.8724 46.77V44.61H51.0224V43.54H51.8724L52.0224 42.21H53.1524V43.54H54.4924V44.61H53.1524V46.78C53.1524 47.02 53.2024 47.1867 53.3024 47.28C53.4091 47.3667 53.5891 47.41 53.8424 47.41H54.4624V48.5H53.5924ZM55.5914 50.7V43.54H56.7314L56.8714 44.25C57.0314 44.03 57.2414 43.8367 57.5014 43.67C57.7681 43.5033 58.1114 43.42 58.5314 43.42C58.9981 43.42 59.4147 43.5333 59.7814 43.76C60.1481 43.9867 60.4381 44.2967 60.6514 44.69C60.8647 45.0833 60.9714 45.53 60.9714 46.03C60.9714 46.53 60.8647 46.9767 60.6514 47.37C60.4381 47.7567 60.1481 48.0633 59.7814 48.29C59.4147 48.51 58.9981 48.62 58.5314 48.62C58.1581 48.62 57.8314 48.55 57.5514 48.41C57.2714 48.27 57.0447 48.0733 56.8714 47.82V50.7H55.5914ZM58.2614 47.5C58.6681 47.5 59.0047 47.3633 59.2714 47.09C59.5381 46.8167 59.6714 46.4633 59.6714 46.03C59.6714 45.5967 59.5381 45.24 59.2714 44.96C59.0047 44.68 58.6681 44.54 58.2614 44.54C57.8481 44.54 57.5081 44.68 57.2414 44.96C56.9814 45.2333 56.8514 45.5867 56.8514 46.02C56.8514 46.4533 56.9814 46.81 57.2414 47.09C57.5081 47.3633 57.8481 47.5 58.2614 47.5ZM62.1148 48.5V41.3H63.3948V48.5H62.1148ZM66.4127 48.62C65.9861 48.62 65.6361 48.5533 65.3627 48.42C65.0894 48.28 64.8861 48.0967 64.7527 47.87C64.6194 47.6433 64.5527 47.3933 64.5527 47.12C64.5527 46.66 64.7327 46.2867 65.0927 46C65.4527 45.7133 65.9927 45.57 66.7127 45.57H67.9727V45.45C67.9727 45.11 67.8761 44.86 67.6827 44.7C67.4894 44.54 67.2494 44.46 66.9627 44.46C66.7027 44.46 66.4761 44.5233 66.2827 44.65C66.0894 44.77 65.9694 44.95 65.9227 45.19H64.6727C64.7061 44.83 64.8261 44.5167 65.0327 44.25C65.2461 43.9833 65.5194 43.78 65.8527 43.64C66.1861 43.4933 66.5594 43.42 66.9727 43.42C67.6794 43.42 68.2361 43.5967 68.6427 43.95C69.0494 44.3033 69.2527 44.8033 69.2527 45.45V48.5H68.1627L68.0427 47.7C67.8961 47.9667 67.6894 48.1867 67.4227 48.36C67.1627 48.5333 66.8261 48.62 66.4127 48.62ZM66.7027 47.62C67.0694 47.62 67.3527 47.5 67.5527 47.26C67.7594 47.02 67.8894 46.7233 67.9427 46.37H66.8527C66.5127 46.37 66.2694 46.4333 66.1227 46.56C65.9761 46.68 65.9027 46.83 65.9027 47.01C65.9027 47.2033 65.9761 47.3533 66.1227 47.46C66.2694 47.5667 66.4627 47.62 66.7027 47.62ZM72.9042 48.62C72.3976 48.62 71.9509 48.51 71.5642 48.29C71.1776 48.07 70.8709 47.7633 70.6442 47.37C70.4242 46.9767 70.3142 46.5267 70.3142 46.02C70.3142 45.5133 70.4242 45.0633 70.6442 44.67C70.8709 44.2767 71.1776 43.97 71.5642 43.75C71.9509 43.53 72.3976 43.42 72.9042 43.42C73.5376 43.42 74.0709 43.5867 74.5042 43.92C74.9376 44.2467 75.2142 44.7 75.3342 45.28H73.9842C73.9176 45.04 73.7842 44.8533 73.5842 44.72C73.3909 44.58 73.1609 44.51 72.8942 44.51C72.5409 44.51 72.2409 44.6433 71.9942 44.91C71.7476 45.1767 71.6242 45.5467 71.6242 46.02C71.6242 46.4933 71.7476 46.8633 71.9942 47.13C72.2409 47.3967 72.5409 47.53 72.8942 47.53C73.1609 47.53 73.3909 47.4633 73.5842 47.33C73.7842 47.1967 73.9176 47.0067 73.9842 46.76H75.3342C75.2142 47.32 74.9376 47.77 74.5042 48.11C74.0709 48.45 73.5376 48.62 72.9042 48.62ZM78.8803 48.62C78.3803 48.62 77.937 48.5133 77.5503 48.3C77.1636 48.0867 76.8603 47.7867 76.6403 47.4C76.4203 47.0133 76.3103 46.5667 76.3103 46.06C76.3103 45.5467 76.417 45.09 76.6303 44.69C76.8503 44.29 77.1503 43.98 77.5303 43.76C77.917 43.5333 78.3703 43.42 78.8903 43.42C79.377 43.42 79.807 43.5267 80.1803 43.74C80.5536 43.9533 80.8436 44.2467 81.0503 44.62C81.2636 44.9867 81.3703 45.3967 81.3703 45.85C81.3703 45.9233 81.367 46 81.3603 46.08C81.3603 46.16 81.357 46.2433 81.3503 46.33H77.5803C77.607 46.7167 77.7403 47.02 77.9803 47.24C78.227 47.46 78.5236 47.57 78.8703 47.57C79.1303 47.57 79.347 47.5133 79.5203 47.4C79.7003 47.28 79.8336 47.1267 79.9203 46.94H81.2203C81.127 47.2533 80.9703 47.54 80.7503 47.8C80.537 48.0533 80.2703 48.2533 79.9503 48.4C79.637 48.5467 79.2803 48.62 78.8803 48.62ZM78.8903 44.46C78.577 44.46 78.3003 44.55 78.0603 44.73C77.8203 44.9033 77.667 45.17 77.6003 45.53H80.0703C80.0503 45.2033 79.9303 44.9433 79.7103 44.75C79.4903 44.5567 79.217 44.46 78.8903 44.46Z" fill="#7A797D"/>
</svg>
